<svg width="48" height="48" viewBox="0 0 48 48" fill="none" xmlns="http://www.w3.org/2000/svg">
<path d="M30.12 9.81V42.5M17.85 38.19V5.6M17.81 5.5L6.24999 9.45C6.03182 9.5086 5.83993 9.63934 5.70556 9.82092C5.57119 10.0025 5.50225 10.2242 5.50999 10.45V41.45C5.50999 41.7152 5.61534 41.9696 5.80288 42.1571C5.99042 42.3446 6.24477 42.45 6.50999 42.45H6.83999L17.84 38.19L30.14 42.5L41.7 38.5C41.9181 38.4414 42.11 38.3107 42.2444 38.1291C42.3788 37.9475 42.4477 37.7258 42.44 37.5V6.5C42.44 6.23478 42.3346 5.98043 42.1471 5.79289C41.9596 5.60536 41.7052 5.5 41.44 5.5L41.11 5.57L30.11 9.76L17.81 5.5Z" stroke="#05073C" stroke-linecap="round" stroke-linejoin="round"/>
</svg>
