<svg width="48" height="48" viewBox="0 0 48 48" fill="none" xmlns="http://www.w3.org/2000/svg">
<path d="M23.523 5.5H7.5C6.96957 5.5 6.46086 5.71071 6.08579 6.08579C5.71071 6.46086 5.5 6.96957 5.5 7.5V40.5C5.5 41.0304 5.71071 41.5391 6.08579 41.9142C6.46086 42.2893 6.96957 42.5 7.5 42.5H40.5C41.0304 42.5 41.5391 42.2893 41.9142 41.9142C42.2893 41.5391 42.5 41.0304 42.5 40.5V7.5C42.5 6.96957 42.2893 6.46086 41.9142 6.08579C41.5391 5.71071 41.0304 5.5 40.5 5.5H35.552" stroke="#05073C" stroke-linecap="round" stroke-linejoin="round"/>
<path d="M34.79 25.058L42.5 23.87M5.5 29.572L25.32 26.517M17.908 27.66L14.168 5.5M29.538 3.367C28.2833 3.367 27.0408 3.61416 25.8816 4.09436C24.7224 4.57455 23.6691 5.27838 22.7819 6.16566C21.8948 7.05294 21.191 8.10628 20.711 9.26554C20.2309 10.4248 19.9839 11.6673 19.984 12.922C19.984 20.399 27.297 29.412 29.191 31.62C29.2455 31.6838 29.3132 31.7349 29.3894 31.7699C29.4656 31.8048 29.5486 31.8227 29.6324 31.8223C29.7163 31.8219 29.7991 31.8033 29.875 31.7677C29.9509 31.732 30.0181 31.6803 30.072 31.616C31.934 29.4 39.092 20.394 39.092 12.922C39.0921 11.6673 38.8451 10.4248 38.365 9.26554C37.885 8.10628 37.1812 7.05294 36.2941 6.16566C35.4069 5.27838 34.3536 4.57455 33.1944 4.09436C32.0352 3.61416 30.7927 3.367 29.538 3.367ZM29.538 16.492C28.8319 16.492 28.1417 16.2826 27.5546 15.8904C26.9675 15.4981 26.51 14.9405 26.2397 14.2882C25.9695 13.6359 25.8988 12.918 26.0366 12.2255C26.1743 11.533 26.5144 10.8969 27.0136 10.3976C27.5129 9.89836 28.149 9.55835 28.8415 9.4206C29.534 9.28285 30.2518 9.35355 30.9042 9.62375C31.5565 9.89396 32.1141 10.3515 32.5063 10.9386C32.8986 11.5257 33.108 12.2159 33.108 12.922C33.108 13.3908 33.0157 13.8551 32.8363 14.2882C32.6568 14.7213 32.3939 15.1149 32.0624 15.4464C31.7309 15.7779 31.3373 16.0408 30.9042 16.2203C30.471 16.3997 30.0068 16.492 29.538 16.492Z" stroke="#05073C" stroke-linecap="round" stroke-linejoin="round"/>
</svg>
