<svg width="48" height="48" viewBox="0 0 48 48" fill="none" xmlns="http://www.w3.org/2000/svg">
<g clip-path="url(#clip0_1_30)">
<path d="M42.6667 17.3333H32C31.2928 17.3333 30.6145 17.6143 30.1144 18.1144C29.6143 18.6145 29.3333 19.2928 29.3333 20V40C29.3333 40.7073 29.6143 41.3855 30.1144 41.8856C30.6145 42.3857 31.2928 42.6667 32 42.6667H42.6667C43.3739 42.6667 44.0522 42.3857 44.5523 41.8856C45.0524 41.3855 45.3333 40.7073 45.3333 40V20C45.3333 19.2928 45.0524 18.6145 44.5523 18.1144C44.0522 17.6143 43.3739 17.3333 42.6667 17.3333ZM42.6667 20V34.6667H32V20H42.6667ZM32 40V36.8H42.6667V40H32Z" fill="#05073C" fill-opacity="0.3"/>
<path d="M26.6667 29.3333H5.33333V8.00001H37.3333V14.6667H40V8.00001C40 7.29277 39.719 6.61449 39.2189 6.11439C38.7189 5.61429 38.0406 5.33334 37.3333 5.33334H5.33333C4.62609 5.33334 3.94781 5.61429 3.44772 6.11439C2.94762 6.61449 2.66667 7.29277 2.66667 8.00001V29.3333C2.66667 30.0406 2.94762 30.7189 3.44772 31.219C3.94781 31.7191 4.62609 32 5.33333 32H26.6667V29.3333Z" fill="#05073C" fill-opacity="0.3"/>
<path d="M26.6667 34.6667H12C11.6464 34.6667 11.3072 34.8071 11.0572 35.0572C10.8071 35.3072 10.6667 35.6464 10.6667 36C10.6667 36.3536 10.8071 36.6928 11.0572 36.9428C11.3072 37.1928 11.6464 37.3333 12 37.3333H26.6667V34.6667Z" fill="#05073C" fill-opacity="0.3"/>
</g>
<defs>
<clipPath id="clip0_1_30">
<rect width="48" height="48" fill="white"/>
</clipPath>
</defs>
</svg>
