<svg width="48" height="48" viewBox="0 0 48 48" fill="none" xmlns="http://www.w3.org/2000/svg">
<path d="M45.39 21.2257C45.3382 21.111 45.2805 21.0067 45.2257 20.898C48.6825 17.5957 44.0107 12.0202 44.0107 12.0202C44.0107 12.0202 42.7222 15.705 42.4387 18.2842C42.3885 18.2715 42.3382 18.2527 42.2873 18.243C39.867 17.7982 37.0807 17.5912 33.519 17.5912C31.878 17.5912 30.303 17.6332 28.7797 17.673C27.4642 17.7075 26.2215 17.7405 25.1055 17.7405C21.096 17.7405 20.4757 17.2282 20.3812 17.0722C20.3835 15.1162 19.9965 13.2675 19.2577 11.6662C20.5365 9.837 20.5515 7.27424 20.1345 6.18149C19.7872 5.27024 19.1317 5.17124 18.8655 5.17124C18.6802 5.17124 18.5017 5.21399 18.3322 5.298C18.0825 5.42099 17.6805 5.62199 17.2132 5.87849C19.029 4.41599 21.4545 4.29374 21.4545 4.29374C17.25 2.73824 14.8912 4.52625 13.7062 6.4905C14.7195 3.012 18.675 1.50674 18.675 1.50674C13.2292 1.31774 11.2942 4.49025 10.7647 7.19625C9.81675 7.53375 8.90475 8.10449 8.0655 8.90474C6.2775 10.6125 5.937 11.9175 5.57625 13.2975C5.19825 14.745 4.728 16.5465 2.16525 19.8607C1.31025 20.9677 1.4625 21.9375 1.6305 22.4175C2.0325 23.5717 3.2775 24.3937 5.22675 24.7942C5.259 24.801 5.29725 24.8062 5.33175 24.8122C5.2215 27.7372 9.05775 29.0677 9.05775 29.0677C9.05775 29.0677 7.797 26.8402 8.71425 23.7787L8.72475 23.7727C9.111 23.5612 9.62625 23.4862 10.173 23.4075C10.7685 23.3212 11.496 23.2155 12.174 22.8652C12.537 25.9942 13.605 30.7215 16.6927 34.542C16.8345 35.2612 17.2485 38.37 15.6427 45.0772L15.3022 46.5H19.8817L20.1457 45.7485L22.3762 39.3907L22.4632 39.1447L22.4377 38.8837C22.347 37.9222 22.3605 36.846 22.4565 36.2467C23.3932 36.507 24.5422 36.6345 25.9462 36.6345C29.9565 36.6345 34.8503 35.5717 36.744 35.121C37.7212 36.5722 39.342 37.8285 40.2998 38.4982C39.9878 39.687 39.5422 42.003 39.6037 45.3757L39.6247 46.5H44.2035L44.3377 45.5152C44.5838 43.7055 45.837 37.2982 45.8498 37.2337L45.9135 36.909L45.801 36.5992C45.024 34.4557 45.027 33.315 45.0518 32.9797C47.1232 28.9545 46.6898 24.0862 45.39 21.2257ZM44.7743 37.005C44.7743 37.005 43.9485 41.217 43.4963 43.8285H40.7115C40.8225 39.9937 41.6025 38.0055 41.6025 38.0055C41.6025 38.0055 38.2635 35.9482 37.2712 33.8152C37.2712 33.8152 30.849 35.49 25.9462 35.49C24.5287 35.49 23.2395 35.3497 22.2682 34.989C22.2045 34.9637 22.1366 34.9502 22.068 34.9492C20.9572 34.9492 21.3457 38.997 21.3457 38.997L19.65 43.827H17.0527C18.5775 36.6502 17.6925 33.999 17.6925 33.999C12.762 28.092 13.0972 19.5375 13.0972 19.5375C12.4875 22.9717 9.97575 21.792 8.214 22.758C6.84675 23.508 6.36975 23.7292 5.91 23.7292C5.75163 23.7257 5.59404 23.7059 5.43975 23.67C3.18975 23.208 1.869 22.0672 3.0195 20.5807C8.07075 14.046 5.45925 12.9457 8.8065 9.75074C9.393 9.19124 9.99825 8.77949 10.6072 8.49149C10.5442 9.76574 10.7677 10.7422 10.9807 10.8757C11.9032 11.454 13.9597 11.0422 13.6522 9.70124C13.5254 9.15911 13.4654 8.60347 13.4737 8.04674C14.0786 8.14111 14.6618 8.34277 15.1957 8.64224C16.365 7.54499 18.075 6.693 18.8025 6.33299C18.8216 6.32261 18.843 6.3172 18.8647 6.31725C19.3972 6.318 19.71 9.75824 17.9355 11.5087C18.7725 13.0125 19.2847 14.913 19.2847 17.058C19.2847 18.5752 21.6367 18.8857 25.1047 18.8857C27.5107 18.8857 30.4515 18.7365 33.519 18.7365C36.381 18.7365 39.3548 18.8677 42.0975 19.3717C44.9108 19.8877 46.812 27.3712 43.9965 32.6062C43.9965 32.6062 43.6463 33.9007 44.7743 37.005Z" fill="#05073C" fill-opacity="0.3"/>
<path d="M9.7275 15.6772C10.3426 15.6772 10.8413 15.1756 10.8413 14.5567C10.8413 13.9379 10.3426 13.4362 9.7275 13.4362C9.1124 13.4362 8.61375 13.9379 8.61375 14.5567C8.61375 15.1756 9.1124 15.6772 9.7275 15.6772Z" fill="#05073C" fill-opacity="0.3"/>
<path d="M3.852 20.7263C3.74325 20.8845 3.66375 21.267 3.813 21.3788C3.96375 21.4928 4.28925 21.294 4.39725 21.1373C4.44992 21.0615 4.47144 20.9684 4.45734 20.8772C4.44323 20.7861 4.39459 20.7038 4.3215 20.6475C4.28598 20.6206 4.24532 20.6012 4.20203 20.5905C4.15873 20.5798 4.11372 20.5781 4.06974 20.5855C4.02577 20.5929 3.98377 20.6092 3.94632 20.6334C3.90888 20.6576 3.87678 20.6892 3.852 20.7263ZM7.84575 20.5988C7.71712 21.022 7.53888 21.4286 7.31475 21.81C6.873 22.5713 6.2175 23.1608 5.45925 23.6633C5.90441 23.5476 6.32238 23.3452 6.68925 23.0678C7.06665 22.7786 7.38557 22.4202 7.629 22.0118C8.112 21.1853 8.30775 20.1788 8.121 19.2593C8.0715 19.7134 7.97935 20.1619 7.84575 20.5988ZM18.4897 7.60201C18.1035 7.77151 15.4605 9.11626 15.0667 10.3658C14.7997 11.2103 14.9212 11.1848 15.2055 10.8863C15.4935 10.584 16.2652 10.3793 15.948 10.584C15.6315 10.7895 15.4567 11.0363 15.8107 10.9163C16.161 10.8015 16.743 10.767 16.254 10.9635C15.7665 11.1578 15.1297 11.634 15.2752 11.8635C15.423 12.0878 15.7125 12.0405 15.9772 11.9213C18.9142 10.62 18.9405 7.40476 18.4897 7.60201Z" fill="#05073C" fill-opacity="0.3"/>
</svg>
