<svg width="48" height="48" viewBox="0 0 48 48" fill="none" xmlns="http://www.w3.org/2000/svg">
<path d="M14 8C12.4087 8 10.8826 8.63214 9.75736 9.75736C8.63214 10.8826 8 12.4087 8 14V18.672C5.636 19.796 4 22.208 4 25V34C3.99935 35.2413 4.38371 36.4523 5.10011 37.466C5.81651 38.4797 6.82969 39.2462 8 39.66V42C8 42.5304 8.21071 43.0391 8.58579 43.4142C8.96086 43.7893 9.46957 44 10 44C10.5304 44 11.0391 43.7893 11.4142 43.4142C11.7893 43.0391 12 42.5304 12 42V40H36V42C36 42.5304 36.2107 43.0391 36.5858 43.4142C36.9609 43.7893 37.4696 44 38 44C38.5304 44 39.0391 43.7893 39.4142 43.4142C39.7893 43.0391 40 42.5304 40 42V39.66C41.1703 39.2462 42.1835 38.4797 42.8999 37.466C43.6163 36.4523 44.0007 35.2413 44 34V25C44 22.208 42.364 19.8 40 18.672V14C40 12.4087 39.3679 10.8826 38.2426 9.75736C37.1174 8.63214 35.5913 8 34 8H14ZM38 36H10C9.46957 36 8.96086 35.7893 8.58579 35.4142C8.21071 35.0391 8 34.5304 8 34V25C8 24.2044 8.31607 23.4413 8.87868 22.8787C9.44129 22.3161 10.2044 22 11 22C11.7957 22 12.5587 22.3161 13.1213 22.8787C13.6839 23.4413 14 24.2044 14 25V26C14 26.5304 14.2107 27.0391 14.5858 27.4142C14.9609 27.7893 15.4696 28 16 28H32C32.5304 28 33.0391 27.7893 33.4142 27.4142C33.7893 27.0391 34 26.5304 34 26V25C34 24.2044 34.3161 23.4413 34.8787 22.8787C35.4413 22.3161 36.2043 22 37 22C37.7957 22 38.5587 22.3161 39.1213 22.8787C39.6839 23.4413 40 24.2044 40 25V34C40 34.5304 39.7893 35.0391 39.4142 35.4142C39.0391 35.7893 38.5304 36 38 36ZM36 18.072C34.5047 18.2885 33.1195 18.9828 32.0511 20.0511C30.9828 21.1195 30.2885 22.5047 30.072 24H17.928C17.7115 22.5047 17.0172 21.1195 15.9489 20.0511C14.8805 18.9828 13.4953 18.2885 12 18.072V14C12 13.4696 12.2107 12.9609 12.5858 12.5858C12.9609 12.2107 13.4696 12 14 12H34C34.5304 12 35.0391 12.2107 35.4142 12.5858C35.7893 12.9609 36 13.4696 36 14V18.072Z" fill="#05073C" fill-opacity="0.3"/>
</svg>
