<svg width="48" height="48" viewBox="0 0 48 48" fill="none" xmlns="http://www.w3.org/2000/svg">
<path d="M22.8 7.2C23.0809 7.1999 23.3529 7.29833 23.5686 7.47813C23.7844 7.65793 23.9302 7.90772 23.9808 8.184L24 8.4V15.6C24.0003 16.9832 23.5227 18.324 22.648 19.3955C21.7733 20.467 20.5552 21.2034 19.2 21.48V39.6C19.2006 39.8999 19.0888 40.1891 18.8868 40.4107C18.6848 40.6323 18.4071 40.7702 18.1084 40.7973C17.8098 40.8244 17.5118 40.7387 17.2732 40.5571C17.0346 40.3754 16.8726 40.1111 16.8192 39.816L16.8 39.6V21.48C15.514 21.217 14.3497 20.5397 13.4853 19.5518C12.621 18.5639 12.1043 17.3199 12.0144 16.0104L12 15.6V8.4C11.9995 8.10013 12.1112 7.81092 12.3132 7.58932C12.5153 7.36772 12.7929 7.22979 13.0916 7.2027C13.3902 7.1756 13.6882 7.2613 13.9268 7.44292C14.1654 7.62454 14.3274 7.88892 14.3808 8.184L14.4 8.4V15.6C14.3996 16.3448 14.6302 17.0713 15.0601 17.6796C15.4899 18.2878 16.0978 18.7477 16.8 18.996V8.4C16.7995 8.10013 16.9112 7.81092 17.1132 7.58932C17.3153 7.36772 17.5929 7.22979 17.8916 7.2027C18.1902 7.1756 18.4882 7.2613 18.7268 7.44292C18.9654 7.62454 19.1274 7.88892 19.1808 8.184L19.2 8.4V18.9936C20.4912 18.5376 21.444 17.3664 21.5832 15.9576L21.6 15.6V8.4C21.6 8.08174 21.7264 7.77651 21.9515 7.55147C22.1765 7.32642 22.4817 7.2 22.8 7.2ZM34.8 7.2C35.0809 7.1999 35.3529 7.29833 35.5686 7.47813C35.7844 7.65793 35.9302 7.90772 35.9808 8.184L36 8.4V39.6C36.0006 39.8999 35.8888 40.1891 35.6868 40.4107C35.4848 40.6323 35.2071 40.7702 34.9084 40.7973C34.6098 40.8244 34.3118 40.7387 34.0732 40.5571C33.8346 40.3754 33.6726 40.1111 33.6192 39.816L33.6 39.6V26.4H30C29.7191 26.4001 29.4471 26.3017 29.2314 26.1219C29.0156 25.9421 28.8698 25.6923 28.8192 25.416L28.8 25.2V13.2C28.8 11.6087 29.4321 10.0826 30.5574 8.95736C31.6826 7.83214 33.2087 7.2 34.8 7.2ZM33.6 24V9.804C32.3088 10.26 31.356 11.4312 31.2168 12.8424L31.2 13.2V24H33.6Z" fill="#05073C" fill-opacity="0.3"/>
</svg>
