<svg width="54" height="54" viewBox="0 0 54 54" fill="none" xmlns="http://www.w3.org/2000/svg">
<path d="M51.4688 23.625C51.1523 23.0977 48.0294 21.7487 48.0294 21.7487C48.5726 21.4682 48.9438 21.4102 48.9438 20.25C48.9438 18.9844 48.9375 18.5625 48.0938 18.5625H45.2313C45.2197 18.5372 45.2071 18.5108 45.1955 18.4845C43.3477 14.4492 43.0998 13.4293 40.3439 12.0561C36.6472 10.2178 29.7169 10.125 27 10.125C24.2831 10.125 17.3528 10.2178 13.6593 12.0561C10.9002 13.4272 10.9688 14.1328 8.8077 18.4845C8.8077 18.4961 8.78555 18.5266 8.76551 18.5625H5.89992C5.0625 18.5625 5.05617 18.9844 5.05617 20.25C5.05617 21.4102 5.42742 21.4682 5.97059 21.7487C5.97059 21.7487 2.95312 23.2031 2.53125 23.625C2.10938 24.0469 1.6875 27 1.6875 32.0625C1.6875 37.125 2.10938 42.1875 2.10938 42.1875H3.36867C3.36867 43.6641 3.58594 43.875 4.21875 43.875H12.6562C13.2891 43.875 13.5 43.6641 13.5 42.1875H40.5C40.5 43.6641 40.7109 43.875 41.3438 43.875H49.9922C50.4141 43.875 50.625 43.5586 50.625 42.1875H51.8906C51.8906 42.1875 52.3125 37.0195 52.3125 32.0625C52.3125 27.1055 51.7852 24.1523 51.4688 23.625ZM13.211 28.3648C11.2901 28.5748 9.35944 28.6825 7.42711 28.6875C5.27344 28.6875 5.19961 28.8257 5.04773 27.4809C4.9906 26.8655 5.00866 26.2453 5.10152 25.6342L5.16797 25.3125H5.48438C6.75 25.3125 7.93863 25.3663 10.183 26.0276C11.3245 26.3701 12.3982 26.9075 13.3566 27.6159C13.8164 27.9492 13.9219 28.2656 13.9219 28.2656L13.211 28.3648ZM39.2787 35.9585L38.8125 37.125H15.1875C15.1875 37.125 15.2286 37.0607 14.6602 35.9459C14.2383 35.1211 14.7656 34.5938 15.5999 34.2942C17.2157 33.712 21.9375 32.0625 27 32.0625C32.0625 32.0625 36.8782 33.4842 38.4434 34.2942C39.0234 34.5938 39.7438 34.8047 39.2787 35.9648V35.9585ZM12.1732 21.5589C11.8325 21.5785 11.4911 21.581 11.1502 21.5662C11.4254 21.0769 11.5784 20.5316 11.8473 19.9621C12.6911 18.1691 13.6561 16.1399 15.3742 15.2845C17.8569 14.0484 23.0027 13.4916 27 13.4916C30.9973 13.4916 36.1431 14.0442 38.6258 15.2845C40.3439 16.1399 41.3047 18.1702 42.1527 19.9621C42.4238 20.5369 42.5746 21.0864 42.8572 21.5789C42.6463 21.5905 42.4037 21.5789 41.8247 21.5589H12.1732ZM48.8468 27.4767C48.6211 28.793 48.832 28.6875 46.5729 28.6875C44.6406 28.6825 42.7099 28.5748 40.789 28.3648C40.4884 28.311 40.403 27.8037 40.6434 27.6159C41.597 26.8996 42.6721 26.3615 43.817 26.0276C46.0614 25.3663 47.3249 25.2777 48.5726 25.322C48.6564 25.3252 48.736 25.3593 48.7962 25.4177C48.8564 25.4761 48.8928 25.5547 48.8985 25.6384C48.9581 26.2523 48.9407 26.8713 48.8468 27.4809V27.4767Z" fill="white"/>
</svg>
