<svg width="48" height="48" viewBox="0 0 48 48" fill="none" xmlns="http://www.w3.org/2000/svg">
<g clip-path="url(#clip0_1_41)">
<path d="M16.048 6.002L31.694 6C31.954 6 32.21 6.004 32.462 6.058L32.71 6.13C33.6048 6.36592 34.3903 6.90451 34.9328 7.65417C35.4754 8.40383 35.7415 9.31827 35.686 10.242L35.654 10.566L35.338 12.774L37.456 13.302C38.6948 13.6117 39.8025 14.3087 40.618 15.2914C41.4334 16.2741 41.9141 17.4913 41.99 18.766L42 19.124V36C42.0001 37.5304 41.4153 39.003 40.3654 40.1165C39.3155 41.23 37.8798 41.9002 36.352 41.99L36 42H12C10.4696 42.0001 8.99697 41.4153 7.88348 40.3654C6.76999 39.3155 6.09978 37.8798 6.01 36.352L6 36V19.124C5.99992 17.8472 6.40718 16.6036 7.16254 15.5741C7.9179 14.5447 8.98197 13.7831 10.2 13.4L10.544 13.302L12.662 12.774L12.346 10.566C12.2147 9.64689 12.4071 8.71074 12.8902 7.91788C13.3733 7.12502 14.117 6.52479 14.994 6.22L15.29 6.13C15.536 6.036 15.79 6.01 16.048 6.002ZM34.768 16.754L34.176 20.91C34.1089 21.3807 33.9309 21.8288 33.6567 22.2172C33.3824 22.6056 33.0198 22.9233 32.5987 23.144C32.1775 23.3648 31.7099 23.4822 31.2345 23.4868C30.759 23.4913 30.2893 23.3827 29.864 23.17L26 21.234V38H36C36.5304 38 37.0391 37.7893 37.4142 37.4142C37.7893 37.0391 38 36.5304 38 36V19.124C37.9999 18.6779 37.8506 18.2446 37.5759 17.8931C37.3012 17.5416 36.9169 17.292 36.484 17.184L34.768 16.754ZM13.23 16.754L11.514 17.182C11.1193 17.2811 10.7642 17.4984 10.4962 17.8046C10.2281 18.1109 10.0599 18.4916 10.014 18.896L10 19.124V36C10.0001 36.4899 10.1799 36.9627 10.5054 37.3287C10.8309 37.6948 11.2795 37.9287 11.766 37.986L12 38H22V21.236L18.136 23.168C17.7307 23.3709 17.2847 23.4792 16.8315 23.485C16.3783 23.4908 15.9297 23.3938 15.5193 23.2013C15.109 23.0089 14.7476 22.7259 14.4623 22.3738C14.177 22.0216 13.9751 21.6093 13.872 21.168L13.824 20.908L13.23 16.754ZM34 28C34.5304 28 35.0391 28.2107 35.4142 28.5858C35.7893 28.9609 36 29.4696 36 30C36 30.5304 35.7893 31.0391 35.4142 31.4142C35.0391 31.7893 34.5304 32 34 32H32C31.4696 32 30.9609 31.7893 30.5858 31.4142C30.2107 31.0391 30 30.5304 30 30C30 29.4696 30.2107 28.9609 30.5858 28.5858C30.9609 28.2107 31.4696 28 32 28H34ZM31.42 11.928L27.106 17.32L30.41 18.972L31.416 11.932L31.42 11.928ZM16.58 11.928L17.588 18.97L20.892 17.318L16.582 11.928H16.58ZM27.84 10H20.16L24 14.8L27.84 10Z" fill="#05073C" fill-opacity="0.3"/>
</g>
<defs>
<clipPath id="clip0_1_41">
<rect width="48" height="48" fill="white"/>
</clipPath>
</defs>
</svg>
