<svg width="48" height="48" viewBox="0 0 48 48" fill="none" xmlns="http://www.w3.org/2000/svg">
<path d="M0 23.8281C0 24.9237 0.780274 25.5859 1.74641 25.5859C2.34258 25.5859 2.81512 25.2665 3.2263 24.8098L23.2811 4.51866C23.5064 4.2674 23.7536 4.17586 24.0202 4.17586C24.2674 4.17586 24.4936 4.2674 24.7391 4.51866L44.7737 24.8098C45.205 25.2665 45.6776 25.5859 46.2536 25.5859C47.2188 25.5859 48 24.9237 48 23.8281C48 23.1435 47.7738 22.7101 47.3837 22.3216L40.2735 15.1326V1.64288C40.2735 0.638845 39.6984 0 38.7945 0H36.103C35.2193 0 34.603 0.638845 34.603 1.64288V9.40348L26.4653 1.14038C25.7464 0.387592 24.8627 0.0233725 24 0.0233725C23.1364 0.0233725 22.2738 0.388565 21.5338 1.14135L0.616329 22.3216C0.246356 22.7101 0 23.1435 0 23.8281ZM5.8766 42.9779C5.8766 46.1507 7.60285 48 10.4995 48H18.8221V31.7708C18.8221 30.721 19.4586 30.0374 20.4037 30.0374H27.6576C28.6027 30.0374 29.2191 30.721 29.2191 31.7708V48H37.5207C40.4173 48 42.1234 46.1507 42.1234 42.9779V26.2705L24.6777 8.80943C24.4515 8.58155 24.2052 8.46761 23.9588 8.46761C23.7326 8.46761 23.5064 8.58155 23.2601 8.8328L5.8766 26.3845V42.9779Z" fill="#05073C" fill-opacity="0.3"/>
</svg>
