<svg width="48" height="48" viewBox="0 0 48 48" fill="none" xmlns="http://www.w3.org/2000/svg">
<path d="M48 42.6667H0V48H48V42.6667ZM4.8 32C4.8 33.3333 5.28 34.6667 6.24 35.7333C7.2 36.8 8.4 37.3333 9.6 37.3333V8C8.4 8 7.2 8.53333 6.24 9.6C5.28 10.6667 4.8 12 4.8 13.3333V32ZM27.6 8H20.4C20.4 6.93333 20.64 5.86667 21.36 5.06667C22.08 4.26667 22.8 4 24 4C24.96 4 25.92 4.26667 26.64 5.06667C27.12 5.86667 27.6 6.93333 27.6 8ZM12 8V37.3333H36V8H31.2C31.2 5.86667 30.48 4 29.04 2.4C27.6 0.8 25.92 0 24 0C22.08 0 20.4 0.8 18.96 2.4C17.52 4 16.8 5.86667 16.8 8H12ZM38.4 37.3333C39.6 37.3333 40.8 36.8 41.76 35.7333C42.72 34.6667 43.2 33.3333 43.2 32V13.3333C43.2 12 42.72 10.6667 41.76 9.6C40.8 8.53333 39.6 8 38.4 8V37.3333Z" fill="#05073C" fill-opacity="0.3"/>
</svg>
